<?xml version="1.0" encoding="utf-8"?><!-- Uploaded to: SVG Repo, www.svgrepo.com, Generator: SVG Repo Mixer Tools -->
<svg width="800px" height="800px" viewBox="0 0 24 24" fill="none" xmlns="http://www.w3.org/2000/svg">
<path fill-rule="evenodd" clip-rule="evenodd" d="M18.4832 15.0004C19.4722 13.5203 20 11.7803 20 10.0002V8.23631C20 7.85754 20.214 7.51128 20.5528 7.34189L21.4472 6.89467C21.9412 6.64768 22.1414 6.04701 21.8944 5.55303C21.6474 5.05905 21.0468 4.85883 20.5528 5.10582L19.6584 5.55303C18.642 6.06121 18 7.1 18 8.23631V9.00024L12 9.00024V2.00024C12 1.44796 11.5523 1.00024 11 1.00024C9.21996 1.00024 7.47991 1.52808 5.99986 2.51702C4.51982 3.50595 3.36627 4.91156 2.68508 6.55609C2.00389 8.20063 1.82566 10.0102 2.17293 11.7561C2.5202 13.5019 3.37736 15.1055 4.63604 16.3642C4.88278 16.611 5.14279 16.8423 5.41453 17.0573C4.03795 17.3297 3 18.5437 3 20.0002C3 21.6571 4.34314 23.0002 6 23.0002C7.65685 23.0002 9 21.6571 9 20.0002C9 19.5356 8.89434 19.0955 8.70575 18.7029C8.88354 18.7498 9.0631 18.7913 9.24418 18.8273C10.5913 19.0953 11.9763 19.0504 13.2942 18.7029C13.1057 19.0955 13 19.5356 13 20.0002C13 21.6571 14.3431 23.0002 16 23.0002C17.6569 23.0002 19 21.6571 19 20.0002C19 18.5437 17.962 17.3297 16.5855 17.0573C17.3175 16.4779 17.9589 15.785 18.4832 15.0004ZM16.7834 13.8646C17.3611 13.0001 17.7352 12.0209 17.8834 11.0002L4.11656 11.0002C4.13389 11.1195 4.15435 11.2386 4.17795 11.3572C4.44634 12.7065 5.10881 13.9459 6.08158 14.9187C7.05435 15.8914 8.29374 16.5539 9.64301 16.8223C10.9923 17.0907 12.3908 16.9529 13.6618 16.4265C14.9328 15.9 16.0191 15.0085 16.7834 13.8646ZM10 3.1168V9.00024L4.11656 9.00024C4.19904 8.43247 4.35188 7.87411 4.57377 7.33842C5.10023 6.06743 5.99176 4.9811 7.13562 4.2168C8.0001 3.63917 8.97936 3.26508 10 3.1168ZM6 21.0079C5.44349 21.0079 4.99235 20.5568 4.99235 20.0002C4.99235 19.4437 5.44349 18.9926 6 18.9926C6.5565 18.9926 7.00764 19.4437 7.00764 20.0002C7.00764 20.5568 6.5565 21.0079 6 21.0079ZM14.9924 20.0002C14.9924 20.5568 15.4435 21.0079 16 21.0079C16.5565 21.0079 17.0076 20.5568 17.0076 20.0002C17.0076 19.4437 16.5565 18.9926 16 18.9926C15.4435 18.9926 14.9924 19.4437 14.9924 20.0002Z" fill="#0F0F0F"/>
</svg>