<svg width="32" height="30" viewBox="0 0 32 30" fill="none" xmlns="http://www.w3.org/2000/svg">
<path d="M13.2773 2.51708L14.8106 1.04215C15.4598 0.417631 16.5097 0.417631 17.152 1.04215L30.579 13.9511C31.2283 14.5756 31.2283 15.5855 30.579 16.2034L17.152 29.119C16.5028 29.7435 15.4529 29.7435 14.8106 29.119L13.2773 27.644C12.6211 27.0129 12.6349 25.9831 13.3049 25.3652L21.6277 17.7381H1.77731C0.858696 17.7381 0.119659 17.0272 0.119659 16.1436V14.0175C0.119659 13.1339 0.858696 12.423 1.77731 12.423H21.6277L13.3049 4.79591C12.628 4.17804 12.6142 3.14824 13.2773 2.51708Z" fill="black"/>
</svg>
